<svg viewBox="0 0 36 36" xmlns="http://www.w3.org/2000/svg"><path d="M36 27c0 2.209-1.791 4-4 4H4c-2.209 0-4-1.791-4-4V9c0-2.209 1.791-4 4-4h28c2.209 0 4 1.791 4 4v18z" fill="#4B92DB"/><g fill="#FFF"><path d="M10.554 15.53c.149-.305.393-.596.68-.813.64-.483 1.34-1.108 1.35-1.93-.212.591-.856.836-1.285 1.24-.227.214-.4.471-.502.738l-.015-.012c.053-.237.154-.451.222-.68.187-.626.153-1.375.763-1.793-.314.08-.577.283-.812.544-.492.545-.449 1.35-.384 2.068.02.222.008.411-.017.638zm3.217 7.731c-.71-.573-.817-1.432-1.134-2.186-.197-.468-.517-.889-.859-1.298.376.751.214 1.72.701 2.428.153.222.366.434.562.612l-.009.009c-.178-.083-.339-.207-.501-.342-.853-.709-2.136-.8-2.647-1.956.138.849.812 1.601 1.54 2.077.692.453 1.578.402 2.347.656z"/><path d="M10.569 20.879c.481.379 1.055.675 1.493 1.008-.086-.218-.227-.419-.284-.65-.258-1.04-.114-2.243-.56-3.205.083.547-.134 1.03-.184 1.55-.041.428.034.843.2 1.203.049.106.138.202.163.311-.16-.144-.274-.329-.384-.508-.517-.837-1.602-1.382-1.676-2.4-.037.453.003.934.154 1.336.21.559.613.989 1.078 1.355zm.73-7.131c.341-.32.737-.557 1.026-.939.347-.459.649-.97 1.101-1.366-.616.24-1.276.485-1.676 1.117-.233.369-.267.806-.451 1.188zm4.304 9.971c.129-.032.286-.022.406-.065-.498-.101-.979-.252-1.365-.605-.554-.507-1.045-1.047-1.638-1.441.464.625.596 1.532 1.444 1.852.15.057.322.066.452.148-.163.025-.306-.025-.458-.058-1.093-.233-2.428.067-3.247-.865.311.609.951 1.09 1.565 1.293.953.313 1.946-.037 2.841-.259z"/><path d="M10.724 19.841l.046.037c-.049-.336-.074-.698.021-1.019.145-.513.326-1.012.422-1.544.074-.413.159-.877.111-1.278-.055.216-.112.429-.231.613-.45.697-.913 1.515-.597 2.4-.007.01-.018.022-.029.015-.127-.292-.155-.625-.237-.939-.218-.831-.858-1.526-.67-2.487-.099.209-.139.444-.191.671-.111.588 0 1.211.16 1.751.198.677.86 1.161 1.195 1.78z"/><path d="M11.557 15.366c.149-.302.242-.643.283-.976-.055.142-.142.273-.259.385-.497.471-1.083.936-1.196 1.603-.016.095-.024.193-.052.286-.022.009-.022-.015-.031-.021l.062-.828c.06-.807-.365-1.705.102-2.416-.016-.003-.025.009-.037.016-.425.542-.708 1.135-.708 1.862 0 .898.517 1.525.581 2.369.133-.88.872-1.505 1.255-2.28zm14.215 2.761c-.082.313-.11.646-.237.939-.012.006-.022-.006-.029-.015.315-.885-.147-1.703-.597-2.4-.118-.183-.175-.397-.231-.613-.049.401.037.864.111 1.278.095.532.277 1.031.422 1.544.095.321.07.683.021 1.019l.046-.037c.335-.619.997-1.103 1.197-1.778.16-.54.27-1.164.16-1.751-.052-.227-.092-.463-.191-.671.186.959-.454 1.653-.672 2.485zm-2.302 4.357c-.162.135-.323.259-.501.342l-.009-.009c.197-.178.41-.39.562-.612.488-.708.325-1.677.701-2.428-.342.409-.662.83-.859 1.298-.317.754-.424 1.613-1.134 2.186.768-.253 1.655-.203 2.346-.656.727-.476 1.401-1.228 1.54-2.077-.51 1.156-1.793 1.246-2.646 1.956z"/><path d="M21.099 23.607c.13-.082.302-.092.452-.148.848-.32.98-1.227 1.444-1.852-.593.394-1.084.934-1.638 1.441-.386.353-.866.504-1.365.605.12.044.276.034.406.065.895.222 1.888.573 2.841.258.615-.203 1.255-.683 1.565-1.293-.819.932-2.154.632-3.247.865-.152.034-.295.084-.458.059zm3.505-2.511c.025-.108.114-.205.163-.311.166-.359.241-.775.2-1.203-.05-.52-.267-1.003-.184-1.55-.446.962-.302 2.165-.56 3.205-.057.23-.197.432-.284.65.438-.333 1.012-.629 1.493-1.008.465-.366.868-.796 1.078-1.355.151-.403.19-.883.153-1.336-.074 1.019-1.158 1.563-1.676 2.4-.109.179-.223.364-.383.508zm1.033-5.28l.062.828c-.009.006-.009.031-.031.021-.028-.092-.036-.19-.052-.286-.113-.667-.699-1.132-1.196-1.603-.118-.112-.204-.243-.259-.385.041.333.134.673.283.976.383.775 1.122 1.4 1.254 2.28.064-.844.581-1.471.581-2.369 0-.727-.283-1.32-.708-1.862-.012-.006-.021-.018-.037-.016.469.711.043 1.609.103 2.416z"/><path d="M24.998 14.074c.068.229.168.443.222.68l-.015.012c-.101-.267-.275-.524-.502-.738-.428-.404-1.073-.649-1.285-1.24.01.822.71 1.446 1.35 1.93.287.217.531.508.68.813-.025-.227-.036-.416-.016-.638.066-.718.108-1.523-.384-2.068-.235-.261-.499-.464-.812-.544.608.418.575 1.167.762 1.793zM21.225 24.34c-.736-.305-1.485-.711-2.324-.711-.305 0-.607.052-.901.14-.294-.089-.595-.14-.901-.14-.839 0-1.588.406-2.324.711-.666.276-1.549.222-2.139-.185.292.366.682.592 1.086.745.749.299 1.624.07 2.262-.338.459-.294.853-.71 1.4-.71.098 0 .197.015.295.036-.769.307-1.469.845-2.015 1.366.1.115.23.222.352.32.608-.628 1.297-1.304 1.983-1.585.687.281 1.376.957 1.983 1.585.122-.099.252-.206.352-.32-.545-.521-1.246-1.058-2.015-1.366.099-.021.197-.036.295-.036.547 0 .941.416 1.4.71.638.408 1.512.637 2.262.338.403-.153.794-.378 1.086-.745-.587.407-1.471.461-2.137.185z"/><path d="m24.702 13.748c-0.184-0.382-0.218-0.819-0.452-1.189-0.4-0.632-1.06-0.877-1.676-1.117 0.452 0.397 0.754 0.907 1.101 1.366 0.29 0.383 0.686 0.62 1.027 0.94z"/><path d="m12.566 14.313-0.069-0.037c-0.403 0.817-0.631 1.735-0.631 2.706 0 0.594 0.085 1.174 0.247 1.729l0.145-0.036c-0.152-0.52-0.235-1.063-0.242-1.618h1.106c7e-3 0.463 0.078 0.916 0.209 1.348l0.143-0.036c-0.128-0.42-0.198-0.861-0.205-1.312h1.002c3e-3 0.148 0.021 0.293 0.04 0.438-0.072 8e-3 -0.141 0.031-0.141 0.031l-0.031 0.101c-0.068 0.013-0.111 0.126-0.111 0.126-0.056 0.019-0.099 0.088-0.08 0.107 0.018 0.019-0.031 0.025-0.031 0.025v0.138l-0.031 0.044 6e-3 0.151c0.037 0 0.031 0.069 0.031 0.069-0.062 6e-3 -0.05 0.088-0.05 0.088l-0.13 0.044-0.025 0.038-0.161-6e-3 -0.039 0.04c-0.013-0.04-0.032-0.078-0.044-0.119l-0.143 0.036c4e-3 0.015 0.011 0.029 0.016 0.043h-0.185l-0.012-0.031-0.062-0.013-6e-3 -0.069-0.093 6e-3 -0.019 0.038-0.099 6e-3c6e-3 0.063-0.099 0.157-0.111 0.132-0.013-0.025-0.081-0.094-0.05-0.107s0.111-0.025 0.111-0.025v-0.044l-0.229-6e-3 -0.025 0.038-0.093 6e-3v0.101l-0.043 0.013c-0.031 0.019 6e-3 0.088 6e-3 0.088 0.043 0.044-6e-3 0.113-6e-3 0.113-0.037 0.038 0.031 0.107 0.031 0.107 0.05 0.012-0.031 0.05-0.031 0.05 0.012 0.063 0.049 0.082 0.049 0.082-0.037 0.063 0.025 0.094 0.025 0.094l6e-3 0.107 0.043 0.025v0.069l0.025 0.044h0.099l-6e-3 -0.157c-0.087-0.101 0.074-0.126 0.081-0.088 6e-3 0.038 0.074 0.057 0.074 0.057 0.012 0.094 0.118 0.151 0.148 0.057 0.031-0.094 0.056-0.038 0.074 6e-3 0.019 0.044 0.136 0.151 0.136 0.151h0.093l0.012 0.088c0.105-6e-3 0.136 6e-3 0.179 0.151 0.043 0.144 0.161 0.182 0.161 0.182l0.087-6e-3c0-0.075 0.087 0.013 0.087 0.05 0 0.038 0.167 0.182 0.167 0.182l0.167 0.038 0.048 0.039c0.099 0.124 0.199 0.246 0.311 0.361l-0.782 0.782c-0.692-0.709-1.187-1.56-1.458-2.487l-0.145 0.036c0.285 0.976 0.811 1.87 1.55 2.609 0.5 0.5 1.072 0.903 1.692 1.2l0.073-0.13c-0.587-0.28-1.129-0.656-1.608-1.123l0.782-0.782c0.406 0.394 0.87 0.709 1.371 0.938l0.073-0.129c-0.49-0.222-0.943-0.529-1.339-0.913l0.138-0.138c9e-3 0.015 0.021 0.021 0.024 0.046 0.012 0.094 0.056 0.075 0.056 0.075l0.353-6e-3 0.124-0.107 0.316-6e-3c0.161-6e-3 0.062-0.226 0.031-0.226-0.021-0.017-0.021-0.054-0.016-0.093 0.253 0.195 0.519 0.368 0.809 0.492l0.073-0.129c-0.386-0.162-0.741-0.396-1.055-0.688l-0.037-0.034 0.779-0.779c0.251 0.237 0.544 0.416 0.861 0.529l0.074-0.131c-0.306-0.106-0.588-0.276-0.83-0.503l0.709-0.71c0.216 0.193 0.485 0.303 0.773 0.327l-1e-3 8e-3s-0.023 0.057 5e-3 0.066 0.018 0.014 0.032 0.028l-0.014 0.033c-0.023-0.031-0.037 0.024-0.023 0.038s-0.032 5e-3 -0.032 0.024-0.014 0.028 0 0.038c0.014 9e-3 -5e-3 0.014-0.023 0.028-0.019 0.014 0.079 0.019 0.079 0.019s-0.018-0.038 5e-3 -0.038l0.01 2e-3v0.048c-0.011-2e-3 -0.013 2e-3 -0.026-1e-3v0.044l-0.05 6e-3 0.043 0.05 0.032 4e-3v0.103l-1e-3 6e-3c0 0.082-0.204 0.025-0.223 6e-3l-6e-3 0.113-0.037 6e-3 6e-3 0.075-6e-3 0.107 0.068-0.013v0.044l0.167 6e-3 0.032-0.034v0.116l-1e-3 6e-3 -0.111 0.013-0.046 0.024-4e-3 -1e-3 -0.017-0.035h-0.049l-0.015 0.02c-0.15-0.021-0.303-0.033-0.445-0.082l-0.074 0.131c0.091 0.033 0.185 0.054 0.28 0.076-0.015 0.013-0.041 0.028-0.037 0.037 0.012 0.031-0.049 0.063-0.049 0.063l-0.056 0.019-0.037 0.057-0.074 0.025-0.012 0.132-0.037 0.025v0.057l-0.043 0.012v0.031l-0.062 6e-3 0.037 0.094 0.05 0.025c0.087 0.012 0.049 0.119 0.049 0.119l0.049 6e-3 0.025 0.069 0.049 0.1c0.019 0.075 0.074 0.057 0.099 0.05 0.025-6e-3 0.049 0.075 0.049 0.075l0.247 6e-3s-0.012 0.025 0.031 0.038c0.024 7e-3 0.12 0.013 0.205 0.015v0.111c-0.458-9e-3 -0.901-0.104-1.312-0.276l-0.073 0.129c0.433 0.184 0.901 0.286 1.385 0.295v1.002c-0.659-0.01-1.296-0.155-1.879-0.42l-0.073 0.129c0.606 0.277 1.268 0.428 1.953 0.438v1.106c-0.879-0.011-1.726-0.21-2.498-0.577l-0.073 0.13c0.815 0.39 1.714 0.597 2.645 0.597 0.976 0 1.917-0.228 2.764-0.657l-0.07-0.136c-0.79 0.4-1.679 0.631-2.62 0.643v-1.106c0.448-7e-3 0.883-0.081 1.302-0.204l0.12 0.037 0.031 0.101 0.05-6e-3 0.037-0.031 0.148-6e-3 0.074-0.069 0.08-0.012 0.648-0.551c0.294-0.183 0.578-0.386 0.832-0.633l0.78 0.78c-0.435 0.425-0.936 0.783-1.483 1.06l0.07 0.136c0.574-0.29 1.105-0.672 1.573-1.14 0.492-0.492 0.889-1.054 1.185-1.662l-1e-3 -1e-3 -0.086-0.047 0.086 0.047c0.4-0.824 0.612-1.733 0.612-2.676 0-0.802-0.154-1.579-0.445-2.3-0.304-0.753-0.76-1.445-1.351-2.037-0.594-0.594-1.289-1.05-2.046-1.355v1e-3c-0.718-0.291-1.493-0.443-2.291-0.443-0.986 0-1.918 0.235-2.744 0.651l0.067 0.129c0.8-0.401 1.684-0.619 2.603-0.63v1.106c-0.749 0.011-1.457 0.193-2.089 0.506l0.067 0.129c0.622-0.308 1.309-0.477 2.022-0.487v1.002c-0.557 0.011-1.084 0.145-1.556 0.375l0.068 0.129c0.459-0.223 0.964-0.346 1.489-0.357v1.106c-0.348 0.01-0.677 0.093-0.975 0.232l0.068 0.13c0.282-0.131 0.589-0.205 0.907-0.214v1.003c-0.117 7e-3 -0.225 0.042-0.332 0.077h-0.046l-6e-3 -0.069 0.031-0.019-0.05-0.019-0.037 0.05-0.012 0.057-0.062 0.013v0.031h-0.043v0.055c-0.088 0.049-0.178 0.094-0.253 0.16l-0.71-0.71c0.183-0.172 0.39-0.312 0.613-0.415l-0.068-0.13c-0.239 0.112-0.458 0.262-0.648 0.441l-0.783-0.783c0.275-0.264 0.584-0.478 0.918-0.64l-0.068-0.129c-0.352 0.172-0.674 0.397-0.953 0.666l-0.709-0.709c0.358-0.347 0.762-0.631 1.197-0.846l-0.067-0.129c-0.456 0.226-0.872 0.521-1.233 0.872l-0.784-0.784c0.449-0.439 0.956-0.797 1.503-1.071l-0.067-0.129c-1.194 0.6-2.167 1.578-2.759 2.777z"/><g fill="#4b92db"><path d="m14.853 17.056 4e-3 0.035-0.093 0.101 0.012 0.1-0.056 0.019-0.012 0.044-0.025 0.132 0.062 6e-3c0.031-0.013 0.025 0.082 0 0.094-0.025 0.013-0.093 0.038-0.056 0.063s-0.099 0.019-0.099-0.019-0.074-0.069-0.093-0.056c-0.01 7e-3 -0.023-9e-3 -0.033-0.027-0.026-0.162-0.043-0.326-0.046-0.492z"/><path d="m14.446 20.093h0.015c0.031-0.107 0.179 6e-3 0.192 0.044 5e-3 0.014 0.026 0.029 0.045 0.044l-0.095 0.095c-0.056-0.059-0.104-0.123-0.157-0.183z"/><path d="m15.415 19.462c-0.054-0.056-0.09-0.124-0.14-0.183 0.011-0.031 0.027-0.059 0.027-0.059 0.08-0.05-0.019-0.132-0.019-0.132 0.012-0.076-0.043-0.163-0.043-0.163-0.111-0.075-0.08-0.22-0.08-0.22v-0.1c-0.093-0.088 0.037-0.101 0.037-0.101 0.043-0.075-0.031-0.132-0.031-0.132l-6e-3 -0.082-0.099-0.013-0.012-0.295-0.223-0.32c-0.043-0.013-0.012-0.088-0.012-0.088 0.056-0.031-0.012-0.107-0.012-0.107l-6e-3 -0.138 0.13-0.013 0.031-0.05h0.062l-6e-3 -0.163c0.015-0.039 0.04-0.048 0.062-0.048h8e-3c0.018 3e-3 0.035 0.01 0.035 0.01l0.087 6e-3 9e-3 -0.016h0.295l0.025 0.161-0.08 0.069c-0.068 0.038-0.068 0.126 6e-3 0.144 0.049 6e-3 0.031 0.126-0.043 0.044-0.111 0 0.062 0.101 0.012 0.075 0.111 0.057 0.087-0.05 0.087-0.05l0.057-0.045c0.024 0.123 0.056 0.244 0.098 0.362 0.114 0.318 0.292 0.612 0.53 0.864z"/><path d="m15.197 16.896c-0.074-0.044-0.037-0.207-0.037-0.207 0.118-0.176 0.254-0.075 0.254-0.075l0.087-6e-3c0.03 0.02 0.045 0.045 0.053 0.071-6e-3 0.045-0.014 0.089-0.017 0.135-0.012 0.026-0.024 0.045-0.024 0.045-7e-3 0.01-6e-3 0.031-8e-3 0.049h-0.24l1e-3 -5e-3z"/><path d="m16.571 17.148 0.025-0.038 0.01-0.054h0.07c2e-3 0.037 0.019 0.069 0.024 0.105l-5e-3 0.024-0.043 0.013-0.012-0.025-0.018 0.069h-0.111l-6e-3 -0.075z"/><path d="m16.302 18.576c-0.219-0.233-0.385-0.503-0.491-0.796-0.047-0.13-0.08-0.265-0.103-0.403 0.052 0.02 0.108 0.102 0.108 0.117 0 0.019 0.247 6e-3 0.247 6e-3 0.068 0.044 0.093 0.157 0.093 0.157 0.068-0.088 0.21-6e-3 0.105 0.044 0.099 0.063 0.099 0.119 0.099 0.119 0.081-0.025 0.081 0.038 0.081 0.057s0.025-0.094 0.025-0.094c-0.093-0.069 0.124-0.094 0.062 0.031l-0.038 0.056 0.062 0.05 6e-3 0.144c0.136-0.013 0.099-0.182 0.099-0.182l0.062-0.012c0-0.057 0.043-0.025 0.043-0.025-0.034-0.17 0.046-0.227 0.082-0.244 0.049 0.092 0.096 0.186 0.167 0.265z"/><path d="m16.938 17.477c8e-3 -0.038 0.01-0.072 0.01-0.072-0.056-0.025-0.025-0.113 0.037-0.038s-0.037-0.151-0.037-0.151l-0.049-0.044-0.042-4e-3c-0.01-0.063-0.037-0.122-0.037-0.187 0-0.03 0.015-0.056 0.017-0.085 0.012-3e-3 0.025-1e-3 0.025-1e-3l0.037 0.031 0.056 0.044 6e-3 0.038-0.037 0.019-6e-3 0.05 0.019 0.069h0.049c0.019-0.101 0.149-0.101 0.186-0.038l0.037-0.088c-0.087-0.044-2e-3 -0.113 0.023-0.082s0.082-0.082 0.082-0.082 0.043 0.057 0-0.019c-0.043-0.075 0.031-0.113 0.031-0.113-0.012-0.075 0.08-0.063 0.08-0.063l6e-3 -0.1-0.087-6e-3c-0.018 0.088-0.093 0.013-0.056-6e-3s0.074-0.057 0.074-0.057v-0.063l0.037-0.013 6e-3 -0.063h0.093l0.08-0.038 0.019-0.031 0.087-6e-3 0.124-0.113-0.012-0.05c-0.074 0 0-0.057 0-0.057l0.012-0.094h-0.068l-0.01-0.112c0.085-0.02 0.168-0.05 0.258-0.05l0.012 0.151-0.068-0.023h-0.043l-0.018-0.038-0.037-6e-3v0.138l0.037 0.031 0.031 0.031 0.062 6e-3 0.012 0.075 0.155 6e-3 0.019 0.031 0.093 6e-3 0.179 0.182-0.012 0.057-0.031 0.019c0.012 0.044-0.08 0.019-0.08 0.019v0.038l0.043 6e-3 0.043 0.025 0.062-0.107c0.068-0.044 0.099 0.019 0.105 0.057s-0.031 0.031-0.031 0.031v0.088l0.037 0.013c0.062 0.075-0.025 0.119-0.025 0.119l-0.019 0.063c-0.019 0.057-0.087 0.044-0.087 0.044l-0.025 0.038-0.074 0.019 0.147 0.019c0.014-0.05 0.051-0.063 0.07-0.038s0.019 0.069 0.019 0.069l0.037 6e-3 -6e-3 0.069 0.037 0.013v0.201l0.043 0.05c0.074-0.031 0.074 0.019 0.037 0.044s-0.012 0.138-0.012 0.138l-0.031 0.031v0.05l-0.038 0.027v0.069c-0.062-0.031-0.136-0.019-0.155 0-0.056-0.038-0.173-0.025-0.173 6e-3 0.037 0.05-0.043 0.063-0.043 0.063l-0.043 0.05c0.031 0.063-0.031 0.069-0.031 0.069v0.119l-0.074 0.069 4e-3 0.093c-0.04 4e-3 -0.074 0.023-0.115 0.023-0.289 0-0.556-0.114-0.771-0.303 1e-3 -1e-3 3e-3 0 4e-3 -2e-3 0.031-0.05 0.08-0.057 0.08-0.057l0.019-0.044 0.167 6e-3c0.012-0.069 0.093-0.044 0.093-0.013s0.062 6e-3 0.062 6e-3l0.043-0.069h0.068l6e-3 -0.075 0.031-0.019v-0.113c0.099-0.031 0.087-0.126 0.087-0.126l0.025-0.031-0.012-0.044c-0.05-0.019-0.025-0.063 6e-3 -0.05s-0.043-0.057-0.043-0.057c-0.037 0.031-0.068-0.038-0.068-0.038h-0.093v-0.088l-0.012-0.082-0.093-0.044-0.068 0.063-0.012 0.088v0.056l-0.062 0.013-0.012 0.169-0.049 0.019 6e-3 0.063-0.136 0.038-0.012 0.082-0.049 0.031-0.025 0.075-0.029 0.171c-0.092-0.089-0.161-0.196-0.214-0.309z"/><path d="m20.227 14.196c0.014 0.014 0.027 0.022 0.029 0.023 0.029 0.024 0.06 0.046 0.089 0.071v0.038c0.045-0.011 0.109 0.045 0.117 0.088l-0.764 0.764c-0.22-0.207-0.472-0.37-0.743-0.484-0.276-0.115-0.574-0.18-0.881-0.189v-1.106c0.448 9e-3 0.882 0.1 1.285 0.265 0.313 0.129 0.6 0.316 0.868 0.53z"/><path d="m20.915 14.171c0.088 0.05 0.159 0.16 0.148 0.182-0.012 0.025 0.074 0.019 0.074 0.019 0.012-0.113 0.118-0.075 0.124-0.038 6e-3 0.038 0.025 0.119 0.025 0.119l0.031 0.056 0.043 0.044 0.068-6e-3 0.019 0.038 0.08 0.013s0.068 0.075 0.074 0.094 0.099 0.013 0.124 0.019 0.062 0.025 0.068 0.057c6e-3 0.031 0.043 0.082 0.043 0.082s0.074 0.019 0.08 0.044 0.037 0.082 0.037 0.082l0.062 0.05 6e-3 0.057 0.068 6e-3 0.019 0.075 0.111-6e-3 0.062-0.044c0.016-9e-3 0.026-0.019 0.04-0.028 0.023 0.052 0.057 0.098 0.077 0.15 0.209 0.526 0.323 1.09 0.332 1.672h-1.002c-3e-3 -0.17-0.028-0.336-0.054-0.501 0.01-0.035 0.018-0.069 6e-3 -0.081-0.018-0.019 0.019-0.107 0.019-0.107s0.025-0.05 0-0.101c-0.025-0.05 6e-3 -0.107 0.025-0.132l-0.049-0.025-0.049-6e-3 -0.051 9e-3 -0.031-0.106 8e-3 -0.016 0.031 6e-3v-0.038l-0.057-0.016c-5e-3 -0.015-8e-3 -0.031-0.014-0.047l-0.01-0.157-0.043-0.031 0.012-0.05-0.049-0.019 0.025-0.082-0.043-0.088h-0.083c-0.027-0.053-0.051-0.108-0.081-0.16 0-9e-3 3e-3 -0.02 0.034-0.029 0.033-9e-3 0.045-0.011 0.049-0.01l-6e-3 -0.065-0.056-0.038-0.019-0.075s-0.068 0.013-0.062 0.05c1e-3 7e-3 -0.014 8e-3 -0.019 0.013-0.039-0.063-0.09-0.118-0.133-0.179 3e-3 -0.01 4e-3 -0.02 9e-3 -0.029 0.025-0.044 0.012-0.069-0.031-0.082s-0.043-0.013-0.056-0.063c-0.012-0.05-0.062-0.063-0.062-0.063l-0.019-0.075-0.058 0.036c-0.023-0.027-0.041-0.057-0.065-0.083l0.025-0.079c-0.026-5e-3 -0.033-0.022-0.04-0.038z"/><path d="m20.715 14.667-5e-3 7e-3c0 0.058 0.023 0.055 0.049 0.049l0.052 0.067c4e-3 0.026 0.017 0.045 0.041 0.053 0.1 0.133 0.191 0.269 0.27 0.413-7e-3 8e-3 -0.01 0.015-0.01 0.015l-0.099 0.013v0.1l-0.05 0.019 6e-3 0.063 0.068-6e-3s0 0.075 0.019 0.044 0.173 6e-3 0.161 0.082c-5e-3 0.031 0.155 0.113 0.136 0.213 0.017 3e-3 0.016 0.014 0.026 0.022 0.03 0.087 0.054 0.176 0.077 0.266l-4e-3 8e-3 9e-3 0.01c0.022 0.085 0.045 0.169 0.06 0.256-6e-3 0.063-0.02 0.123-0.051 0.142-0.074 0.044 6e-3 0.019 6e-3 0.019l-0.012 0.138c0.019 0.063 0.049 0.031 0.068 0 6e-3 -0.01 0.013-0.015 0.019-0.021 9e-3 0.091 0.027 0.179 0.029 0.271h-0.748l0.013-0.017 0.031-0.088 0.105-0.031 0.012-0.082-0.056-6e-3s0.062-0.113 0.093-0.113 0.235 0 0.254-0.013 0.056-0.113 0.056-0.132 0.05-0.025 0.068-0.031c0.019-6e-3 0.062-0.056 0.074-0.082 0.012-0.025-0.031-0.182-0.056-0.157s-0.08 0.038-0.08 0.038l-0.019 0.069-0.031 0.025s6e-3 0.019 0 0.063-0.062 0.069-0.062 0.069l-0.025 0.031s-0.149 8e-3 -0.167 0c-0.056-0.025-0.018-0.1 0.019-0.094s-6e-3 -0.107-6e-3 -0.107l0.05-6e-3s6e-3 -0.113 0.025-0.113-6e-3 -0.038-0.031-0.056c-0.025-0.019-0.056-0.082-0.081-0.075-0.025 6e-3 -0.124 0-0.124 0l-0.019 0.038-0.068 0.013s6e-3 0.049-6e-3 0.063c-0.037 0.044-0.179 0.138-0.118-0.019l0.018-0.038v-0.057l-0.111-6e-3s-0.056-0.019-0.056-0.044-6e-3 -0.056-6e-3 -0.056l-0.13-0.144-0.155-0.019-0.012-0.031-0.093-0.013c-0.012-6e-3 -0.02 1e-3 -0.032-3e-3 -0.041-0.066-0.095-0.123-0.143-0.186l-0.011-0.044c-5e-3 -0.022-0.07-0.105-0.107-0.11-0.017-0.019-0.028-0.041-0.046-0.059l0.768-0.768c0.021 0.021 0.028 0.034 0.06 0.057 5e-3 3e-3 8e-3 0 0.013 2e-3 0.029 0.026 0.05 0.059 0.075 0.089z"/><path d="m21.275 18.43c-0.169 0.381-0.402 0.727-0.687 1.024-0.012-0.127-0.039-0.266-0.039-0.266l-0.05-0.025 0.012-0.151h-0.068l-0.111 0.145-0.012 0.04-0.063-0.063 0.032-0.033-6e-3 -0.075 0.043-0.038v-0.063l0.037-0.013 6e-3 -0.138 0.031-6e-3v-0.301l-0.093-0.088c-6e-3 0.031-0.105 0.031-0.105 0.031s-0.025 0.044-0.043 0.044 0.025 0.057 0.012 0.094c-0.012 0.038-0.062 0.038-0.062 0.038l-0.093 0.025-0.025 0.031h-0.099l-0.01-0.066 0.016-0.02 0.093-0.026 0.062-0.031 0.031-0.063c6e-3 -0.063 0.08-0.056 0.08-0.056s0.142-0.119 0.148-0.176 0.056-0.214 0.142-0.214h0.161c0.062-0.025 0.043-0.107 0.043-0.107l0.08-0.013 0.012 0.044s0.111 0.013 0.124-6e-3c0.012-0.019 0.037-0.063 0.068-0.044s0.13-0.044 0.13-0.044c6e-3 -0.044 0.161-0.025 0.161-0.025l0.019-0.056s-0.105-0.144-0.124-0.144-0.118-0.088-0.13-0.057c-0.099-0.025-0.093-0.163-0.093-0.163l-0.037-0.088c0-0.05-0.093-0.157-0.111-0.144-0.039-0.029-0.046-0.059-0.044-0.086h0.865c-7e-3 0.487-0.116 0.951-0.303 1.373z"/><path d="m18.476 18.259 0.031 0.013-0.056 0.044-0.049 0.057-0.062-0.019-0.074-6e-3 -0.025-0.044-0.043-6e-3 -6e-3 0.088-0.031 0.038-0.074 0.076c0.078 0 0.026 0.042-0.012 0.06v-0.251c0.076-4e-3 0.144-0.033 0.217-0.049l0.03 0.026h0.056l5e-3 -0.047c0.031-9e-3 0.064-0.01 0.094-0.021-6e-3 0.017-1e-3 0.041-1e-3 0.041z"/><path d="m19.589 15.497c8e-3 1e-3 0.018 6e-3 0.026 6e-3 0.037 0 0.118-0.013 0.118-0.013l0.053 0.012c0.03 0.036 0.058 0.074 0.085 0.111l-0.064-0.01-0.049-6e-3 -0.093-6e-3c-0.093 0.063-0.111 0.138-0.111 0.138-0.045 0.085-0.14-0.013-0.126-0.07z"/><path d="m19.386 19.019 0.161 0.082c0.019 0.025 0.099 0.019 0.099 0.019l0.025 0.031s0.05-6e-3 0.081 0.031c0.031 0.038 0.192 6e-3 0.192 6e-3l0.043 0.038 0.068 0.025 0.115 4e-3 0.07 0.07c-0.112 0.052-0.337 0.035-0.352 0.02-0.019-0.019-0.148-0.075-0.148-0.075s-0.099-0.082-0.118-0.056-0.105-0.031-0.105-0.013-0.08-0.044-0.08-0.044l-0.124-0.044 0.093-0.019z"/><path d="m19.405 18.282c3e-3 -7e-3 9e-3 -0.013-1e-3 -0.023-7e-3 -8e-3 -0.02-7e-3 -0.03-8e-3l-0.051-0.051c-3e-3 -0.039 5e-3 -0.092 1e-3 -0.111-6e-3 -0.025 0.105-0.063 0.087-6e-3 -0.019 0.057 0 0.082 0 0.082 0.08-0.075 0.148 6e-3 0.142 0.025s0.043 0.038 0.074 0.019 0.068 0.057 0.056 0.094c-0.012 0.038-0.124 0.031-0.13-6e-3 -6e-3 -0.038-0.025-0.025-0.037-6e-3 -0.011 0.017-0.057 0.026-0.088 0.014z"/><path d="m19.937 15.904c-0.062 0-0.074-0.05-0.074-0.05s-0.049-0.019-0.049 6e-3 -0.019 0.075 0 0.1c0.018 0.025-0.025 0.063-0.043 0.044s-0.068-0.075-0.056-0.094-0.087-0.138 0.012-0.157-6e-3 -0.075 0.031-0.088l0.049-0.025h0.049l0.022-0.018c0.028 0.039 0.062 0.074 0.088 0.114-3e-3 0.014-0.02 0.019-0.017 0.036 0.019 0.095 0.049 0.132-0.012 0.132z"/><path d="m18.465 18.065c-0.035 0.015-0.076 0.014-0.113 0.026v-0.12l0.062-0.069c0.066-0.023 0.055 0.116 0.051 0.163z"/><path d="m18.075 20.423c0.032-0.035 0.153-0.039 0.21 3e-3 0.068 0.05 0.161 0.019 0.161 0.019l0.052 0.063c-0.141 0.02-0.277 0.053-0.423 0.056z"/><path d="m18.901 14.834c0.253 0.106 0.488 0.258 0.693 0.451l-0.043 0.043c-0.017-0.021-0.084-0.034-0.084-0.057 0-0.025-0.062-0.057-0.056-0.019s-0.043 0.057-0.056 0.044c-0.012-0.013-0.049 0.038-0.049 0.038 0 0.019-0.012 0.044 0.025 0.05s0.105-0.025 0.111 0.013c2e-3 0.013 5e-3 0.023 8e-3 0.033l-0.243 0.243c-0.035 2e-3 -0.068 1e-3 -0.068 1e-3 -0.019 0.057-0.105-6e-3 -0.08-0.044s0.025-0.063 0.025-0.063l-0.031-6e-3 -0.037 0.069c-0.087 0-0.111 0.05-0.093 0.082 0.019 0.031-0.025-6e-3 -0.037 0.038s6e-3 0.044 0.043 0.063-0.019 0.019 6e-3 0.05c0.018 0.023 0.048 0.02 0.054 0.029l-0.024 0.024c-0.045 0.022-0.105 0.016-0.105 0.016-2e-3 0.017-0.023 0.018-0.039 0.024-0.061-0.049-0.128-0.087-0.196-0.123l-6e-3 -8e-3h-7e-3c-0.031-0.017-0.058-0.043-0.09-0.057 0.019-0.013 0.045-0.021 0.059-0.062 0.025-0.069 0.037-0.182 0.037-0.182s-0.099-6e-3 -0.105 0.025-0.068 0.05-0.068 0.05-0.05 0.019-0.031 0.044-0.037 0.038-0.037 0.038 5e-3 0.029-4e-3 0.048c-0.098-0.029-0.195-0.062-0.299-0.068v-1.003c0.288 6e-3 0.567 0.067 0.827 0.176z"/><path d="m18.136 18.9 0.142-0.031c0.012-0.063 0.074 0.013 0.074 0.013 0.062-6e-3 0.074 0.038 0.074 0.038l0.081 0.013c0.068 0.019 0.027 0.026 0.031 0.05 6e-3 0.038 0.037 0.025 0.037 0.025l0.012-0.082 0.037 6e-3 -0.037-0.044-0.068-0.031-0.074-0.031c-0.049-0.069 0.012-0.057 0.062-0.05h0.08s0.093 0.125 0.093 0.157c0 0.031 0.043 0.038 0.043 0.038l0.056-6e-3 0.019 0.044h0.056l0.019 0.038h0.111l6e-3 -0.057-0.105-0.019-6e-3 -0.063-0.074-0.019c-0.025-0.107 0.018-0.138 0.049-0.088l0.037 6e-3 -0.012-0.094 0.043-0.013-0.012-0.132-0.037-0.012v-0.046l0.155 6e-3c-0.012-0.082 6e-3 -0.119 6e-3 -0.119h0.043l6e-3 0.031 0.189 0.018 9e-3 1e-3c0.074 0.044 0.037 0.101 0.012 0.113-0.025 0.013-0.068 0.013-0.068 0.013l-0.012 0.025-0.161 0.012-0.012 0.063c-0.08-0.013-0.111 0.075-0.093 0.119 0.019 0.044 0 0.082 0 0.082l0.068 0.031 0.087-0.025c0.012-0.063 0.068-0.076 0.118-0.113 0.045-0.034 0.106 0.048 0.1 0.102-0.1 0.07-0.19 0.153-0.3 0.207-0.164 0.08-0.341 0.135-0.524 0.175h-1e-3l-0.068-0.019-6e-3 -0.094c-0.012-0.063-0.13-0.063-0.124-0.019s-0.221 0.019-0.222 0.019v-0.173z"/><path d="m18.074 20.712c0.172-3e-3 0.336-0.04 0.503-0.066l0.022 0.049 0.105 0.031 0.074 0.019 0.025 0.107 0.056 6e-3 0.019 0.069c0.068 0.05-0.019 0.157-0.019 0.157v0.138l0.05 0.025-6e-3 0.05 0.081 0.081 0.093 6e-3 0.151 0.161c-0.369 0.1-0.754 0.159-1.153 0.166v-0.999z"/><path d="m20.543 20.957v-0.047c0.111-0.082 0.118-0.226 0.012-0.239-0.08-0.01-0.043-0.094 0.031-0.107l0.043-0.019v-0.057l0.142-0.132v-0.101l-0.309-0.258c-0.068-0.025-0.068-0.112-0.04-0.193 0.053-0.046 0.111-0.085 0.163-0.134l0.435 0.435c-0.017 0.033-0.032 0.065-0.025 0.086l0.056 0.025 6e-3 0.107c0.042 0.043 0.134 0.04 0.209 0.027l0.026 0.026c-0.227 0.223-0.482 0.41-0.749 0.581z"/><path d="m21.396 20.273-0.027-0.027-9e-3 -0.159-0.031-0.031-6e-3 -0.157c0.025-0.082-0.118-0.201-0.13-0.176s-0.093 6e-3 -0.093 0.031-0.049 0.151-0.025 0.195v4e-3l-0.386-0.386c0.303-0.315 0.544-0.675 0.718-1.064 0.201-0.45 0.312-0.94 0.322-1.447h1.001c-0.01 0.688-0.169 1.34-0.444 1.927-0.224 0.478-0.526 0.914-0.89 1.29z"/><path d="m23.388 19.584c-0.283 0.584-0.658 1.115-1.106 1.575l-0.78-0.78c0.382-0.394 0.69-0.841 0.917-1.324 0.291-0.619 0.449-1.297 0.459-2h1.106c-0.011 0.905-0.224 1.763-0.596 2.529z"/><path d="m23.552 14.74c0.275 0.681 0.424 1.413 0.433 2.168h-1.106c-9e-3 -0.602-0.127-1.186-0.344-1.73-0.029-0.072-0.074-0.135-0.106-0.206 7e-3 -0.034 0.021-0.101 0.076-0.084 0.062 0.019 0.019-0.138 0.019-0.138s-0.087-0.063-0.081-0.094-0.087-0.094-0.08-0.119c6e-3 -0.025-0.08-0.075-0.074-0.1s-0.043-0.094-0.043-0.094l-0.093-0.088-0.012-0.057-0.074-6e-3 -0.148-0.182 6e-3 -0.05-0.043-6e-3v-0.069l-0.043-0.025-0.068-6e-3 -0.139-0.154-0.012-0.069h-0.068l0.01-0.107 0.723-0.723c0.552 0.567 0.979 1.225 1.267 1.939z"/><path d="m18.074 12.104v-1.106c0.753 9e-3 1.484 0.158 2.164 0.431v-1e-3c0.715 0.288 1.374 0.715 1.942 1.269l-0.659 0.659c-0.024 6e-3 -0.05 0.013-0.068 5e-3 -0.043-0.019 0.018-0.063 0.018-0.063v-0.05l-0.037-0.038s-0.105 0.013-0.111-6e-3 -0.025-0.101-0.025-0.101l-6e-3 -0.107-0.043-0.019-6e-3 -0.038-0.068 6e-3v-0.075l-0.037-0.013-0.038-0.017-6e-3 -0.075-0.136-6e-3 -0.043-0.063-0.049-0.075-0.155-0.013-0.037-0.038-0.062-0.013-0.043-0.019-0.019 0.031-0.118 6e-3 -6e-3 0.038c-0.045 0.023-0.184 0.016-0.262 0.018-0.111-0.055-0.215-0.126-0.33-0.172l-0.054 0.138c0.101 0.041 0.193 0.104 0.291 0.152-5e-3 8e-3 -8e-3 0.022-0.016 0.022-0.031 0-0.019 0.082-0.019 0.082s0.081 0 0.105 6e-3c0.025 6e-3 0.025 0.069 0.025 0.069 0.093-6e-3 0.13 0.119 0.118 0.151-0.012 0.031 0.037 0.031 0.037 0.031s0 0.1-0.012 0.126c-0.012 0.025 0.081 0.044 0.105 0.082 0.025 0.038-0.012 0.163-0.031 0.17-0.019 6e-3 0.049 0.025 0.043 0.057-6e-3 0.031 0.019 0 0.025 0.05l0.019 0.157 0.087 6e-3c0.012-0.082 0.172-0.085 0.198-0.075 0.105 0.038 0.186 0.201 0.186 0.239s-0.068 0.044-0.068 0.044l3e-3 0.041-0.221 0.221c-0.02-0.012-0.042-0.024-0.054-0.017-0.031 0.019-0.019-0.132-0.019-0.132s0.056-0.038 0.081-0.019-0.21-0.314-0.26-0.283c-0.049 0.031-0.161-0.031-0.155-0.088 6e-3 -0.056-0.223-0.245-0.223-0.245s-0.074-0.05-0.087-0.012c-0.012 0.038-0.037 0.063 0 0.082s0.031-0.031 0.074 0.013 0.124 0.1 0.093 0.138-0.068 0.05-0.068 0.05l0.043 0.05h0.068l0.012 0.107s0.074 0.038 0.093 0.082c0.015 0.036 0.01 0.056 0 0.078-0.138-0.105-0.279-0.201-0.429-0.285 3e-3 -0.016 0.011-0.032 8e-3 -0.044-0.012-0.044 0.05-0.063 0.08-0.013l0.062-6e-3 0.012-0.057-0.086-0.071h-0.068s-6e-3 0.05-0.049 0.031-0.019-0.013-0.056-0.019-0.025 0.082-0.019 0.107l-2e-3 7e-3c-0.098-0.051-0.191-0.112-0.293-0.153-0.42-0.172-0.873-0.267-1.339-0.276v-0.557c0.035-1e-3 0.058-0.01 0.062-0.026 6e-3 -0.025 0.012-0.031 0.049-0.038 0.037-6e-3 -6e-3 -0.082-0.043-0.075-0.032 5e-3 -0.056-0.014-0.068-0.037v-0.268c0.594 9e-3 1.17 0.128 1.705 0.345l0.054-0.138c-0.552-0.224-1.146-0.346-1.759-0.355z"/><path d="m16.908 15.994-0.059-2e-3c-0.025 0.057-0.087-6e-3 -0.087-6e-3 -0.012-0.038-0.099 0-0.099 0 0 0.069-0.118-0.031-0.118-0.031l-0.217-0.157c-0.124-0.113-0.309 0.031-0.315 0.063 3e-3 0.044-0.032 0.048-0.068 0.042 0.097-0.184 0.21-0.359 0.356-0.514z"/><path d="m16.198 15.285c-0.162 0.172-0.292 0.372-0.4 0.585-0.029-1e-3 -0.061 0-0.069 0.022-0.018 0.05-0.099 0.038-0.099 0.038l-0.012 0.025-0.062 0.013-0.012 0.038-0.074 0.013 0.186-6e-3c0.05-6e-3 -0.019 0.107-0.049 0.1l-0.087 6e-3 -0.031 0.031h-0.08l-0.039 0.05-0.117-6e-3s-0.068 0.057-0.062 0.075c6e-3 0.019-0.012 0.075-0.031 0.075s-0.056 0.057-0.043 0.075c0.012 0.019-0.037 0.082-0.037 0.082l-0.012 0.063-0.037 0.013v0.17l-0.074 0.05v0.075l-0.034 0.037h-0.503c0.01-0.498 0.122-0.978 0.324-1.419 0.165-0.36 0.391-0.694 0.673-0.987z"/><path d="m15.312 14.399c-0.286 0.297-0.523 0.642-0.698 1.021-0.211 0.454-0.333 0.958-0.343 1.488h-1.002c0.01-0.692 0.169-1.359 0.46-1.966 0.219-0.456 0.511-0.879 0.873-1.252z"/><path d="m13.716 12.802 0.784 0.784c-0.365 0.376-0.669 0.809-0.899 1.286-0.298 0.618-0.469 1.308-0.479 2.036h-1.106c0.011-0.903 0.222-1.774 0.61-2.563 0.275-0.561 0.641-1.082 1.09-1.543z"/></g><path d="M13.106 19.923l.068.063.025-.044-.044-.094-.043-.032-.031-.088-.093-.043.044.113.024.056zm4.702-3.956zm-2.549 1.714c.006.069.056-.044.056-.044v-.427l-.111-.013.006.044h.031c.049.088.006.301.006.301s-.074.006-.087-.031c-.012-.038-.043.082-.019.101.025.019.112 0 .118.069z"/><path d="M15.203 17.719v.151l.099.132.037-.088.013-.057-.044-.019.007-.094.037-.006.006-.044-.093.063zm1.955-.276l.013-.063.037-.019.006-.063.025-.044.037-.044.013-.05.061-.037.075-.013.031-.038.012-.075.005-.056.026-.038.074-.032v-.119h-.037l-.006-.044-.068-.006-.013.031h-.03l-.007.05h.037l.007.038-.025.025-.012.032-.05.012-.111.107-.007.05-.03.044-.037.094-.131.006-.024.114.018.094zm.489.408l-.056.006.006.088.037.031.068.019s.093-.025.099-.1l-.142-.006-.012-.038zm.489-.358c.013.055.012-.088.037-.082.025.006.006-.088.006-.088l-.111.081c.056.008.062.064.068.089zm.439-.126c-.093-.063-.087-.144-.111-.201-.011-.024-.037-.044-.056.006v.082s.087.138.117.157c.032.019.082-.022.05-.044zm2.785.189c-.025-.075-.175-.011-.148.025.037.05.099.025.124.031.024.007.049.019.024-.056zm.198-2.091c0 .019.013.113.013.113s.043.019.049.044c.006.025 0 .075.019.082.018.006.056.031.043.056-.012.025-.012.075-.012.075l.025.057.049.031s.019-.151-.012-.157c-.031-.006-.018-.094-.018-.094s.031-.119-.019-.119-.012-.063-.043-.082c-.031-.019-.012-.107-.025-.132-.012-.025-.012-.057-.043-.075-.031-.019.006.069-.012.082-.019.013-.031.038-.05.057-.02.018.036.043.036.062zm-.266-.591c.018.025.056.044.056.069 0 .025-.012.044.025.05.037.006.062-.006.074.025.012.031.012.082.006.107-.006.025.006.063.037.063s.037.006.037.025c0 .019.037-.069.037-.069-.031-.025-.056-.082-.056-.082s-.031-.088-.031-.1c0-.013-.043-.025-.062-.031-.019-.006-.05-.063-.05-.063l-.073.006zm-.068-.138c.025 0 .043.013.068.025.025.013.043.031.062.057l.062-.019s.006-.063-.019-.044c-.025.019-.043-.044-.068-.038-.025.006-.037-.025-.062-.056s-.019-.038-.05-.057c-.031-.019-.05-.019-.05.006s.031.038.019.069c-.012.032.013.057.038.057zm-.706.434s.019.031.037.05c.019.019.062.057.019.082s.006.019.006.019-.006.132-.062.113c-.056-.019-.074.069-.074.094s.22.035.186 0c-.019-.019.025-.063.025-.063s.149.013.18.013.056-.006.037-.038c-.019-.031-.074-.025-.074-.025s-.074.019-.142-.019.012-.05.025-.05.068-.044.043-.075c-.025-.031 0-.088 0-.063 0 .025.068.038.081.019.012-.019 0-.075-.031-.094-.031-.019.056-.031.031-.063-.027-.032-.039-.07-.039-.07s-.037.05-.111.025c0 0-.012.119-.049.144h-.088zm.805-.048v.004s.004-.003 0-.004zm-2.234.374c0 .019.043.038.068.038s.093-.05.093-.05.031-.088.006-.082c-.025.006-.074.044-.08.006-.006-.038-.08-.019-.08-.019l-.099.013-.006.044.068.006c-.001 0 .03.026.03.044zm.532-2.091c-.031 0-.087-.038-.074-.063.012-.025-.105-.05-.105-.05s-.105-.101-.068-.088c.037.013.019-.044.019-.044s-.074.013-.093.006c-.019-.006-.012-.063-.012-.063s-.074-.019-.074 0 .025.019.037.056c.012.038.006.101.062.113.056.013.068.025.074.05.006.025.074.031.074.031l.05.025.148.126v-.05c-.001.001-.007-.049-.038-.049zm-.65-.804c.002.002.006-.005.008-.005-.021-.01-.034-.015-.008.005zm.192 0l-.043-.031s-.068-.006-.068-.025c0-.017-.045.054-.072.052.03.015.078.042.078.042.049 0 .08.038.08.057s.068.013.068.013l.006-.044-.049-.064zm1.77-.018s.116.137.111.069c-.012-.188-.099-.195-.13-.232-.031-.038-.164.007-.155.057.006.031.031.063.08.075l.094.031zm-2.389-.729v-.069l-.024-.025-.025-.088-.08-.025-.08.031-.087.057-.093.013-.05.056.198.019.037.063.142.013.093.094c.081.025.099-.013.05-.056l-.081-.083zm.57-.308h-.111c-.006-.044-.105-.025-.111 0-.006.025-.043.031-.043.031l-.142.013c-.012.038-.087.063-.093.038-.014-.055-.093.069-.012.094.08.025.161 0 .161 0l.019-.038.309.006c.025-.025.037-.063.037-.063s.074-.025.105-.013c.031.013.006-.088-.025-.075-.032.013-.094.007-.094.007zm-1.671 1.306c.006.019.068.025.074.006.006-.019.031-.057-.025-.057s-.043-.031-.062-.05c-.019-.019-.147-.016-.142.006.006.031.056.069.056.069s.093.008.099.026zm.292 5.662c.028-.005.046-.019.069-.024.023-.005.033-.042.042-.08.009-.038-.009-.057-.009-.057s-.023.038-.06 0-.07.085-.084.113c.001.001.015.052.042.048z"/></g></svg>
