<svg xmlns="http://www.w3.org/2000/svg" viewBox="0 0 45 45"><defs><clipPath id="a"><path d="M0 36h36V0H0v36z"/></clipPath></defs><g clip-path="url(#a)" transform="matrix(1.25 0 0 -1.25 0 45)"><path d="M31.42 4.53a9 9 0 0 0-12.728 0L4.55 18.67a9 9 0 0 0 0 12.728 9 9 0 0 0 12.728 0L31.42 17.257a9 9 0 0 0 0-12.728" fill="#d99e82"/><path d="M29.335 15.1c3.515-3.514 4.609-8.118 2.475-10.252-2.135-2.134-6.74-1.04-10.253 2.475L7.415 21.463C3.9 24.98 2.805 29.584 4.94 31.718c2.134 2.134 6.738 1.04 10.253-2.475L29.335 15.1z" fill="#f7bba6"/><path d="M33.167 7.026c1.415-1.415 1.61-3.51.44-4.683-1.172-1.17-3.268-.976-4.683.44L2.733 28.974c-1.415 1.413-1.611 3.51-.44 4.681 1.17 1.173 3.268.976 4.682-.438L33.167 7.024z" fill="#dd2e44"/><path d="M5.257 32.107c2.238-2.238.824-3.652 3.062-5.89 2.237-2.238 3.651-.823 5.89-3.061 2.236-2.237.822-3.652 3.06-5.89 2.24-2.24 3.654-.825 5.893-3.064 2.242-2.242.827-3.656 3.07-5.897 2.24-2.241 3.654-.827 5.895-3.068" fill="none" stroke="#ffcc4d" stroke-width="2" stroke-linecap="round" stroke-miterlimit="10"/></g></svg>