<?xml version="1.0" encoding="UTF-8" standalone="no"?>
<svg
   xmlns:dc="http://purl.org/dc/elements/1.1/"
   xmlns:cc="http://creativecommons.org/ns#"
   xmlns:rdf="http://www.w3.org/1999/02/22-rdf-syntax-ns#"
   xmlns:svg="http://www.w3.org/2000/svg"
   xmlns="http://www.w3.org/2000/svg"
   viewBox="0 0 45 45"
   style="enable-background:new 0 0 45 45;"
   xml:space="preserve"
   version="1.1"
   id="svg2">
   <metadata
     id="metadata8"><rdf:RDF><cc:Work
         rdf:about=""><dc:format>image/svg+xml</dc:format><dc:type
           rdf:resource="http://purl.org/dc/dcmitype/StillImage" /><dc:title></dc:title></cc:Work></rdf:RDF></metadata>
	<g
     id="g136"><path
       id="path12"
       style="fill:#bbddf5;fill-opacity:1;fill-rule:nonzero;stroke:none;stroke-width:1.25"
       d="m 36.25,31.25 h 7.5 v -17.5 h -7.5 z" /><path
       id="path14"
       style="fill:#bbddf5;fill-opacity:1;fill-rule:nonzero;stroke:none;stroke-width:1.25"
       d="m 1.25,31.25 h 7.5 v -17.5 h -7.5 z" /><path
       id="path16"
       style="fill:#bbddf5;fill-opacity:1;fill-rule:nonzero;stroke:none;stroke-width:1.25"
       d="m 11.25,31.25 h 22.5 v -17.5 h -22.5 z" /></g><path
     d="m 33.75,31.25 h -22.5 v -17.5 h 22.5 z m 10,-17.5 V 7.5 H 1.25 v 6.25 h 7.5 v 17.5 h -7.5 v 6.25 h 42.5 v -6.25 h -7.5 v -17.5 z"
     style="fill:#231f20;fill-opacity:1;fill-rule:nonzero;stroke:none;stroke-width:1.25"
     id="path18" /><g
     id="g158"><path
       id="path20"
       style="fill:#f5f8fa;fill-opacity:1;fill-rule:nonzero;stroke:none;stroke-width:1.25"
       d="m 38.75,12.5 h 2.5 V 8.75 h -2.5 z" /><path
       id="path22"
       style="fill:#f5f8fa;fill-opacity:1;fill-rule:nonzero;stroke:none;stroke-width:1.25"
       d="m 33.75,12.5 h 2.5 V 8.75 h -2.5 z" /><path
       id="path24"
       style="fill:#f5f8fa;fill-opacity:1;fill-rule:nonzero;stroke:none;stroke-width:1.25"
       d="m 28.75,12.5 h 2.5 V 8.75 h -2.5 z" /><path
       id="path26"
       style="fill:#f5f8fa;fill-opacity:1;fill-rule:nonzero;stroke:none;stroke-width:1.25"
       d="m 23.75,12.5 h 2.5 V 8.75 h -2.5 z" /><path
       id="path28"
       style="fill:#f5f8fa;fill-opacity:1;fill-rule:nonzero;stroke:none;stroke-width:1.25"
       d="m 18.75,12.5 h 2.5 V 8.75 h -2.5 z" /><path
       id="path30"
       style="fill:#f5f8fa;fill-opacity:1;fill-rule:nonzero;stroke:none;stroke-width:1.25"
       d="m 13.75,12.5 h 2.5 V 8.75 h -2.5 z" /><path
       id="path32"
       style="fill:#f5f8fa;fill-opacity:1;fill-rule:nonzero;stroke:none;stroke-width:1.25"
       d="m 8.75,12.5 h 2.5 V 8.75 h -2.5 z" /><path
       id="path34"
       style="fill:#f5f8fa;fill-opacity:1;fill-rule:nonzero;stroke:none;stroke-width:1.25"
       d="m 3.75,12.5 h 2.5 V 8.75 h -2.5 z" /><path
       id="path36"
       style="fill:#f5f8fa;fill-opacity:1;fill-rule:nonzero;stroke:none;stroke-width:1.25"
       d="m 38.75,36.25 h 2.5 V 32.5 h -2.5 z" /><path
       id="path38"
       style="fill:#f5f8fa;fill-opacity:1;fill-rule:nonzero;stroke:none;stroke-width:1.25"
       d="m 33.75,36.25 h 2.5 V 32.5 h -2.5 z" /><path
       id="path40"
       style="fill:#f5f8fa;fill-opacity:1;fill-rule:nonzero;stroke:none;stroke-width:1.25"
       d="m 28.75,36.25 h 2.5 V 32.5 h -2.5 z" /><path
       id="path42"
       style="fill:#f5f8fa;fill-opacity:1;fill-rule:nonzero;stroke:none;stroke-width:1.25"
       d="m 23.75,36.25 h 2.5 V 32.5 h -2.5 z" /><path
       id="path44"
       style="fill:#f5f8fa;fill-opacity:1;fill-rule:nonzero;stroke:none;stroke-width:1.25"
       d="m 18.75,36.25 h 2.5 V 32.5 h -2.5 z" /><path
       id="path46"
       style="fill:#f5f8fa;fill-opacity:1;fill-rule:nonzero;stroke:none;stroke-width:1.25"
       d="m 13.75,36.25 h 2.5 V 32.5 h -2.5 z" /><path
       id="path48"
       style="fill:#f5f8fa;fill-opacity:1;fill-rule:nonzero;stroke:none;stroke-width:1.25"
       d="m 8.75,36.25 h 2.5 V 32.5 h -2.5 z" /><path
       id="path50"
       style="fill:#f5f8fa;fill-opacity:1;fill-rule:nonzero;stroke:none;stroke-width:1.25"
       d="m 3.75,36.25 h 2.5 V 32.5 h -2.5 z" /></g><g
     id="g140"><path
       id="path52"
       style="fill:#88c9f9;fill-opacity:1;fill-rule:nonzero;stroke:none;stroke-width:1.25"
       d="M 36.25,31.25 H 37.5 V 13.75 H 36.25 Z" /><path
       id="path54"
       style="fill:#88c9f9;fill-opacity:1;fill-rule:nonzero;stroke:none;stroke-width:1.25"
       d="M 11.25,31.25 H 12.5 V 13.75 H 11.25 Z" /></g></svg>