<?xml version="1.0" encoding="UTF-8" standalone="no"?>
<svg
   xmlns:dc="http://purl.org/dc/elements/1.1/"
   xmlns:cc="http://creativecommons.org/ns#"
   xmlns:rdf="http://www.w3.org/1999/02/22-rdf-syntax-ns#"
   xmlns:svg="http://www.w3.org/2000/svg"
   xmlns="http://www.w3.org/2000/svg"
   id="svg2"
   version="1.1"
   xml:space="preserve"
   style="enable-background:new 0 0 45 45;"
   viewBox="0 0 45 45"><metadata
     id="metadata8"><rdf:RDF><cc:Work
         rdf:about=""><dc:format>image/svg+xml</dc:format><dc:type
           rdf:resource="http://purl.org/dc/dcmitype/StillImage" /><dc:title></dc:title></cc:Work></rdf:RDF></metadata><defs
     id="defs6" /><g
     id="g10"
     transform="matrix(1.25,0,0,-1.25,0,45)"><path
       d="m 29,11 6,0 0,14 -6,0 0,-14 z"
       style="fill:#bbddf5;fill-opacity:1;fill-rule:nonzero;stroke:none"
       id="path12" /><path
       d="M 1,11 7,11 7,25 1,25 1,11 Z"
       style="fill:#bbddf5;fill-opacity:1;fill-rule:nonzero;stroke:none"
       id="path14" /><path
       d="M 9,11 27,11 27,25 9,25 9,11 Z"
       style="fill:#bbddf5;fill-opacity:1;fill-rule:nonzero;stroke:none"
       id="path16" /><path
       id="path18"
       transform="matrix(0.8,0,0,-0.8,0,36)"
       d="M 1.25 7.5 L 1.25 13.75 L 8.75 13.75 L 8.75 31.25 L 1.25 31.25 L 1.25 37.5 L 43.75 37.5 L 43.75 31.25 L 36.25 31.25 L 36.25 13.75 L 43.75 13.75 L 43.75 7.5 L 1.25 7.5 z M 3.75 8.75 L 6.25 8.75 L 6.25 12.5 L 3.75 12.5 L 3.75 8.75 z M 8.75 8.75 L 11.25 8.75 L 11.25 12.5 L 8.75 12.5 L 8.75 8.75 z M 13.75 8.75 L 16.25 8.75 L 16.25 12.5 L 13.75 12.5 L 13.75 8.75 z M 18.75 8.75 L 21.25 8.75 L 21.25 12.5 L 18.75 12.5 L 18.75 8.75 z M 23.75 8.75 L 26.25 8.75 L 26.25 12.5 L 23.75 12.5 L 23.75 8.75 z M 28.75 8.75 L 31.25 8.75 L 31.25 12.5 L 28.75 12.5 L 28.75 8.75 z M 33.75 8.75 L 36.25 8.75 L 36.25 12.5 L 33.75 12.5 L 33.75 8.75 z M 38.75 8.75 L 41.25 8.75 L 41.25 12.5 L 38.75 12.5 L 38.75 8.75 z M 11.25 13.75 L 33.75 13.75 L 33.75 31.25 L 11.25 31.25 L 11.25 13.75 z M 3.75 32.5 L 6.25 32.5 L 6.25 36.25 L 3.75 36.25 L 3.75 32.5 z M 8.75 32.5 L 11.25 32.5 L 11.25 36.25 L 8.75 36.25 L 8.75 32.5 z M 13.75 32.5 L 16.25 32.5 L 16.25 36.25 L 13.75 36.25 L 13.75 32.5 z M 18.75 32.5 L 21.25 32.5 L 21.25 36.25 L 18.75 36.25 L 18.75 32.5 z M 23.75 32.5 L 26.25 32.5 L 26.25 36.25 L 23.75 36.25 L 23.75 32.5 z M 28.75 32.5 L 31.25 32.5 L 31.25 36.25 L 28.75 36.25 L 28.75 32.5 z M 33.75 32.5 L 36.25 32.5 L 36.25 36.25 L 33.75 36.25 L 33.75 32.5 z M 38.75 32.5 L 41.25 32.5 L 41.25 36.25 L 38.75 36.25 L 38.75 32.5 z "
       style="fill:#231f20;fill-opacity:1;fill-rule:nonzero;stroke:none;stroke-width:1.25" /><path
       d="m 29,11 1,0 0,14 -1,0 0,-14 z"
       style="fill:#88c9f9;fill-opacity:1;fill-rule:nonzero;stroke:none"
       id="path52" /><path
       d="m 9,11 1,0 0,14 -1,0 0,-14 z"
       style="fill:#88c9f9;fill-opacity:1;fill-rule:nonzero;stroke:none"
       id="path54" /></g></svg>