<?xml version="1.0" encoding="UTF-8" standalone="no"?>
<svg
   xmlns:dc="http://purl.org/dc/elements/1.1/"
   xmlns:cc="http://creativecommons.org/ns#"
   xmlns:rdf="http://www.w3.org/1999/02/22-rdf-syntax-ns#"
   xmlns:svg="http://www.w3.org/2000/svg"
   xmlns="http://www.w3.org/2000/svg"
   xmlns:sodipodi="http://sodipodi.sourceforge.net/DTD/sodipodi-0.dtd"
   xmlns:inkscape="http://www.inkscape.org/namespaces/inkscape"
   viewBox="0 0 45 45"
   style="enable-background:new 0 0 45 45;"
   xml:space="preserve"
   version="1.1"
   id="svg2"
   sodipodi:docname="1f39e.svg"
   inkscape:version="0.92.2 (5c3e80d, 2017-08-06)"><sodipodi:namedview
     pagecolor="#ffffff"
     bordercolor="#666666"
     borderopacity="1"
     objecttolerance="10"
     gridtolerance="10"
     guidetolerance="10"
     inkscape:pageopacity="0"
     inkscape:pageshadow="2"
     inkscape:window-width="1366"
     inkscape:window-height="705"
     id="namedview3753"
     showgrid="false"
     inkscape:zoom="11.911111"
     inkscape:cx="22.5"
     inkscape:cy="22.5"
     inkscape:window-x="-8"
     inkscape:window-y="-8"
     inkscape:window-maximized="1"
     inkscape:current-layer="g10" /><metadata
     id="metadata8"><rdf:RDF><cc:Work
         rdf:about=""><dc:format>image/svg+xml</dc:format><dc:type
           rdf:resource="http://purl.org/dc/dcmitype/StillImage" /><dc:title></dc:title></cc:Work></rdf:RDF></metadata><defs
     id="defs6" /><g
     transform="matrix(1.25,0,0,-1.25,0,45)"
     id="g10"><path
       id="path12"
       style="fill:#bbddf5;fill-opacity:1;fill-rule:nonzero;stroke:none;stroke-width:0.91287094"
       d="m 30,11 h 5 v 14 h -5 z"
       inkscape:connector-curvature="0" /><path
       id="path14"
       style="fill:#bbddf5;fill-opacity:1;fill-rule:nonzero;stroke:none"
       d="M 1,11 7,11 7,25 1,25 1,11 Z" /><path
       id="path16"
       style="fill:#bbddf5;fill-opacity:1;fill-rule:nonzero;stroke:none;stroke-width:0.9718253"
       d="M 10,11 H 27 V 25 H 10 Z"
       inkscape:connector-curvature="0" /><path
       id="path18"
       style="fill:#231f20;fill-opacity:1;fill-rule:nonzero;stroke:none"
       d="m 27,11 -18,0 0,14 18,0 0,-14 z m 8,14 0,5 -34,0 0,-5 6,0 0,-14 -6,0 0,-5 34,0 0,5 -6,0 0,14 6,0 z" /><path
       id="path20"
       style="fill:#f5f8fa;fill-opacity:1;fill-rule:nonzero;stroke:none"
       d="m 31,26 2,0 0,3 -2,0 0,-3 z" /><path
       id="path22"
       style="fill:#f5f8fa;fill-opacity:1;fill-rule:nonzero;stroke:none"
       d="m 27,26 2,0 0,3 -2,0 0,-3 z" /><path
       id="path24"
       style="fill:#f5f8fa;fill-opacity:1;fill-rule:nonzero;stroke:none"
       d="m 23,26 2,0 0,3 -2,0 0,-3 z" /><path
       id="path26"
       style="fill:#f5f8fa;fill-opacity:1;fill-rule:nonzero;stroke:none"
       d="m 19,26 2,0 0,3 -2,0 0,-3 z" /><path
       id="path28"
       style="fill:#f5f8fa;fill-opacity:1;fill-rule:nonzero;stroke:none"
       d="m 15,26 2,0 0,3 -2,0 0,-3 z" /><path
       id="path30"
       style="fill:#f5f8fa;fill-opacity:1;fill-rule:nonzero;stroke:none"
       d="m 11,26 2,0 0,3 -2,0 0,-3 z" /><path
       id="path32"
       style="fill:#f5f8fa;fill-opacity:1;fill-rule:nonzero;stroke:none"
       d="m 7,26 2,0 0,3 -2,0 0,-3 z" /><path
       id="path34"
       style="fill:#f5f8fa;fill-opacity:1;fill-rule:nonzero;stroke:none"
       d="m 3,26 2,0 0,3 -2,0 0,-3 z" /><path
       id="path36"
       style="fill:#f5f8fa;fill-opacity:1;fill-rule:nonzero;stroke:none"
       d="m 31,7 2,0 0,3 -2,0 0,-3 z" /><path
       id="path38"
       style="fill:#f5f8fa;fill-opacity:1;fill-rule:nonzero;stroke:none"
       d="m 27,7 2,0 0,3 -2,0 0,-3 z" /><path
       id="path40"
       style="fill:#f5f8fa;fill-opacity:1;fill-rule:nonzero;stroke:none"
       d="m 23,7 2,0 0,3 -2,0 0,-3 z" /><path
       id="path42"
       style="fill:#f5f8fa;fill-opacity:1;fill-rule:nonzero;stroke:none"
       d="m 19,7 2,0 0,3 -2,0 0,-3 z" /><path
       id="path44"
       style="fill:#f5f8fa;fill-opacity:1;fill-rule:nonzero;stroke:none"
       d="m 15,7 2,0 0,3 -2,0 0,-3 z" /><path
       id="path46"
       style="fill:#f5f8fa;fill-opacity:1;fill-rule:nonzero;stroke:none"
       d="m 11,7 2,0 0,3 -2,0 0,-3 z" /><path
       id="path48"
       style="fill:#f5f8fa;fill-opacity:1;fill-rule:nonzero;stroke:none"
       d="M 7,7 9,7 9,10 7,10 7,7 Z" /><path
       id="path50"
       style="fill:#f5f8fa;fill-opacity:1;fill-rule:nonzero;stroke:none"
       d="M 3,7 5,7 5,10 3,10 3,7 Z" /><path
       id="path52"
       style="fill:#88c9f9;fill-opacity:1;fill-rule:nonzero;stroke:none"
       d="m 29,11 1,0 0,14 -1,0 0,-14 z" /><path
       id="path54"
       style="fill:#88c9f9;fill-opacity:1;fill-rule:nonzero;stroke:none"
       d="m 9,11 1,0 0,14 -1,0 0,-14 z" /></g></svg>