<?xml version="1.0" encoding="UTF-8" standalone="no"?>
<svg
   xmlns:dc="http://purl.org/dc/elements/1.1/"
   xmlns:cc="http://creativecommons.org/ns#"
   xmlns:rdf="http://www.w3.org/1999/02/22-rdf-syntax-ns#"
   xmlns:svg="http://www.w3.org/2000/svg"
   xmlns="http://www.w3.org/2000/svg"
   id="svg2"
   version="1.1"
   xml:space="preserve"
   style="enable-background:new 0 0 45 45;"
   viewBox="0 0 45 45"><metadata
     id="metadata8"><rdf:RDF><cc:Work
         rdf:about=""><dc:format>image/svg+xml</dc:format><dc:type
           rdf:resource="http://purl.org/dc/dcmitype/StillImage" /><dc:title></dc:title></cc:Work></rdf:RDF></metadata>
	<path
     d="m 22.5,12.35225 10.295,5.1475 h -20.59 z m 15,5.1475 -1.25,-6.25 H 8.75 l -1.25,6.25 -5,3.75 h 40 z"
     style="fill:#66757f;fill-opacity:1;fill-rule:nonzero;stroke:none;stroke-width:1.25"
     id="path28" /><g
     id="g114"><path
       d="M 38.75,28.75 H 6.25 v 8.75 h 32.5 z"
       style="fill:#d1d3d4;fill-opacity:1;fill-rule:nonzero;stroke:none;stroke-width:1.25"
       id="path12" /><path
       id="path24"
       style="fill:#d1d3d4;fill-opacity:1;fill-rule:nonzero;stroke:none;stroke-width:1.25"
       d="m 22.5,12.35225 -10.295,5.1475 h 20.59 z" /><path
       d="M 37.5,21.25 H 7.5 V 25 h 30 z"
       style="fill:#d1d3d4;fill-opacity:1;fill-rule:nonzero;stroke:none;stroke-width:1.25"
       id="path30" /><path
       id="path34"
       style="fill:#d1d3d4;fill-opacity:1;fill-rule:nonzero;stroke:none;stroke-width:1.25"
       d="m 30,11.25 v -5 H 15 v 5 h -2.5 v 2.5 h 20 v -2.5 z" /></g><path
     d="m 4.9995,36.24975 -5,8.75 h 45 l -4.99875,-8.75 z"
     style="fill:#d99e82;fill-opacity:1;fill-rule:nonzero;stroke:none;stroke-width:1.25"
     id="path16" /><path
     d="M 28.7505,0 V 1.25 H 16.24925 V 0 h -1.25 V 1.25 2.5 h 1.25 12.50125 1.25 V 1.25 0 Z"
     style="fill:#99aab5;fill-opacity:1;fill-rule:nonzero;stroke:none;stroke-width:1.25"
     id="path42" /><g
     id="g129"><path
       id="path20"
       style="fill:#66757f;fill-opacity:1;fill-rule:nonzero;stroke:none;stroke-width:1.25"
       d="m 37.5,25 h -30 l -6.25,5 h 42.5 z" /><path
       id="path38"
       style="fill:#66757f;fill-opacity:1;fill-rule:nonzero;stroke:none;stroke-width:1.25"
       d="M 15,2.5 H 30 V 5 l 2.5,2.5 h -20 L 15,5 Z" /><path
       id="path46"
       style="fill:#66757f;fill-opacity:1;fill-rule:nonzero;stroke:none;stroke-width:1.25"
       d="m 15,17.5 7.5,-3.75 7.5,3.75 z m 22.5,0.955 -6.38125,-3.19125 -7.5,-3.75 L 22.5,10.955 l -1.11875,0.55875 -7.5,3.75 L 7.5,18.455 V 20 h 7.5 15 7.5 z" /></g><path
     id="path48"
     style="fill:#6d6e71;fill-opacity:1;fill-rule:nonzero;stroke:none;stroke-width:1.25"
     d="M 38.75,36.25 H 6.25 v -2.5 h 32.5 z" /></svg>