<svg data-name="Layer 1" xmlns="http://www.w3.org/2000/svg" viewBox="0 0 33 36"><path d="M32.82 12.71l-4.23 9.53L6.35 36 0 29.65 16.94 9.53l10.59-2.12z" fill="#c1694f"/><path d="M0 22v7.65L6.35 36v-8z" fill="#662113"/><path d="M33 5v7.71l-4.41 9.53V15L27 8z" fill="#a04e3c"/><path d="M33 5l-4.41 9.82L6.35 28.59 0 22 16.94 2.12 27.53 0z" fill="#d99e82"/><path d="M11 30a1 1 0 0 1-.55-1.83l3-2a1 1 0 1 1 1.1 1.66l-3 2A.94.94 0 0 1 11 30zm11-7a1 1 0 0 1-.55-1.83l3-2a1 1 0 0 1 1.1 1.66l-3 2A.94.94 0 0 1 22 23z" fill="#ffac33"/><path d="M8 25a1 1 0 0 1-.71-.29l-3-3a1 1 0 0 1 0-1.39l15-16a1 1 0 0 1 .55-.32l6-1a1 1 0 0 1 .87.28l2 2a1 1 0 0 1 .22 1.08l-2 5a1 1 0 0 1-.34.44l-18 13A1 1 0 0 1 8 25zm-1.61-4l1.72 1.71 17.07-12.35 1.65-4.12-1.17-1.17-5.16.86z" fill="#c1694f"/></svg>